<?xml version="1.0" encoding="utf-8"?>
<!-- Generator: Adobe Illustrator 24.1.0, SVG Export Plug-In . SVG Version: 6.00 Build 0)  -->
<svg version="1.1" id="Capa_1" xmlns="http://www.w3.org/2000/svg" xmlns:xlink="http://www.w3.org/1999/xlink" x="0px" y="0px"
	 viewBox="0 0 2599 1733" style="enable-background:new 0 0 2599 1733;" xml:space="preserve">
<style type="text/css">
	.st0{fill:#F9B347;stroke:#000000;stroke-width:15.7848;stroke-linecap:round;stroke-linejoin:round;stroke-miterlimit:10;}
	.st1{fill:#FFD14A;}
	.st2{fill:#F9B347;}
	.st3{fill:#63B450;stroke:#000000;stroke-width:15.7848;stroke-linecap:round;stroke-linejoin:round;stroke-miterlimit:10;}
	.st4{fill:#63B450;}
	.st5{fill:#FFCE00;stroke:#000000;stroke-width:15.7848;stroke-linecap:round;stroke-linejoin:round;stroke-miterlimit:10;}
	.st6{fill:#FFE200;stroke:#000000;stroke-width:15.7848;stroke-linecap:round;stroke-linejoin:round;stroke-miterlimit:10;}
	.st7{fill:#84400F;stroke:#000000;stroke-width:11.3934;stroke-linecap:round;stroke-linejoin:round;stroke-miterlimit:10;}
	.st8{fill:#D46421;}
	.st9{fill:#DD3410;stroke:#000000;stroke-width:11.8386;stroke-linecap:round;stroke-linejoin:round;stroke-miterlimit:10;}
	.st10{fill:#F8F0B9;stroke:#000000;stroke-width:11.8386;stroke-linecap:round;stroke-linejoin:round;stroke-miterlimit:10;}
	.st11{fill:#FAD8A0;}
	.st12{fill:none;stroke:#000000;stroke-width:15.7848;stroke-linecap:round;stroke-linejoin:round;stroke-miterlimit:10;}
	.st13{fill:#B6571B;}
	.st14{fill:#FCF6DE;}
</style>
<g>
	<g>
		<path class="st0" d="M1885.1,987.6l-531.6,35.6l-0.22-1.49l-6.52,1.66l-6.69,0.19l0.18,1.49L820.9,1146.6
			c0,0,8.84,127.96,76.09,167.09c103.94,60.46,293.77,64.37,495.2,33.43c195.01-32.16,383.6-81.67,466.91-168.39
			C1912.97,1122.61,1885.1,987.6,1885.1,987.6z"/>
		<path class="st1" d="M1527.45,1243.43c32.32-22.24,72.88-33.5,111.59-29.05c11.87,1.38,24.27,3.54,36.83,5.45
			c7.33,0.82,14.65,1.66,21.84,2.35c5.5,0.55,11.04,1.06,16.57,1.53c12.41,0.29,24.64-0.72,36.38-4.09
			c22.61-6.52,35.9-25.72,49.72-44.07c17.59-37.65,45.59-73.04,81.84-93.34c3.27-1.83,6.55-3.42,9.83-4.84
			c1.82-47.24-6.95-89.79-6.95-89.79l-531.6,35.59l-0.23-1.49l-6.5,1.67l-6.71,0.19l0.19,1.49L820.9,1146.6
			c0,0,3.74,53.81,24.7,102.32c30.67-4.06,60.93,6.48,89.23,25.44c37.2,24.95,71.09,59.36,119.53,56.04
			c27.9-1.91,52.31-15.11,73.32-32.94c18.08-15.32,34.37-31.58,58.49-36.67c21.15-4.48,44.17-1.32,64.4,5.72
			c16.98,5.9,32.82,18.68,45.79,30.56c14.5,13.29,28.73,20.26,48.37,23.69c33.18,5.79,80.14,8.5,109.53-10.38
			c18.98-12.16,32.93-29.97,48.4-46.01C1510.14,1256.61,1518.48,1249.6,1527.45,1243.43z"/>
		<g>
			<path class="st2" d="M1822.62,1204.69c0.38,0.14,0.77,0.19,1.15,0.27c3.81-2.08,7.68-4.09,11.58-6.07
				c0.1-0.23,0.24-0.44,0.33-0.67c1.9-5.51-0.75-11.15-6.19-13.09c-5.66-2-11.7,0.92-13.46,6.5
				C1814.33,1196.91,1817.36,1202.91,1822.62,1204.69z"/>
			<path class="st2" d="M1868.71,1171.55c-1.2-1.74-2.95-3.15-5.17-3.9c-5.45-1.85-11.25,0.87-13.18,6.2
				c-1.95,5.39,1.18,11.72,6.67,13.47c0.15,0.05,0.3,0.05,0.44,0.08c1.7-0.93,3.37-1.93,5.02-2.92
				C1863.19,1180.2,1865.15,1175.81,1868.71,1171.55z"/>
			<path class="st2" d="M1788.7,1222.16c5.4,1.63,11.09-1.45,12.78-6.95c1.72-5.53-1.24-11.05-6.81-12.76
				c-5.45-1.65-11.29,1.43-12.88,6.77C1780.21,1214.53,1783.44,1220.58,1788.7,1222.16z"/>
			<path class="st2" d="M1754.14,1239.27c5.16,1.79,10.96-1,12.81-6.18c1.89-5.21-0.75-10.95-5.9-12.87
				c-5.39-2-11.39,0.83-13.2,6.25C1746.11,1231.62,1749,1237.46,1754.14,1239.27z"/>
			<path class="st2" d="M1720.33,1256.39c5.1,1.61,10.53-1.08,12.27-6.09c1.77-5.06-1.23-11.03-6.36-12.65
				c-5.25-1.62-10.78,1.39-12.35,6.76C1712.34,1249.64,1715.1,1254.74,1720.33,1256.39z"/>
			<path class="st2" d="M1686.08,1273.54c4.85,1.56,10.05-1.01,11.77-5.85c1.74-4.87-0.66-10.08-5.48-11.92
				c-5.01-1.93-10.53,0.58-12.29,5.61C1678.33,1266.33,1681.07,1271.89,1686.08,1273.54z"/>
			<path class="st2" d="M1839.91,1151.92c4.82,1.57,10.12-1.29,11.58-6.23c1.43-4.82-1.14-9.64-5.94-11.19
				c-4.7-1.53-9.82,0.95-11.48,5.54C1832.37,1144.72,1835.16,1150.38,1839.91,1151.92z"/>
			<path class="st2" d="M1874.51,1134.46c4.76,1.3,9.7-1.43,11.13-6.18c1.43-4.74-1.18-9.68-5.93-11.18
				c-4.7-1.49-9.82,1.1-11.36,5.73C1866.77,1127.62,1869.67,1133.12,1874.51,1134.46z"/>
			<path class="st2" d="M1805.46,1169.15c4.58,1.65,9.8-0.81,11.5-5.42c1.75-4.68-0.54-9.8-5.15-11.56
				c-4.83-1.86-10.27,0.64-11.92,5.47C1798.33,1162.19,1800.9,1167.51,1805.46,1169.15z"/>
			<path class="st2" d="M1771.65,1186.53c4.73,1.46,9.71-1.17,11.19-5.88c1.46-4.69-1.2-9.73-5.88-11.2
				c-4.72-1.46-9.75,1.19-11.21,5.89C1764.26,1180.07,1766.9,1185.05,1771.65,1186.53z"/>
			<path class="st2" d="M1652.07,1290.46c4.71,1.5,9.72-1.09,11.23-5.8c1.48-4.68-1.12-9.74-5.82-11.23
				c-4.69-1.49-9.73,1.1-11.24,5.81C1644.74,1283.96,1647.32,1288.97,1652.07,1290.46z"/>
			<path class="st2" d="M1737.13,1203.59c4.72,1.65,9.8-0.82,11.28-5.47c1.41-4.37-1.08-9.43-5.39-11
				c-4.6-1.65-9.66,0.88-11.21,5.61C1730.32,1197.37,1732.59,1202,1737.13,1203.59z"/>
			<path class="st2" d="M1703.33,1220.98c4.54,1.4,9.45-1.23,10.72-5.74c1.24-4.31-1.25-9.05-5.45-10.51
				c-4.45-1.53-9.4,0.98-10.85,5.51C1696.26,1214.84,1698.7,1219.54,1703.33,1220.98z"/>
			<path class="st2" d="M1626.58,1293.59c-0.89-0.92-1.96-1.68-3.25-2.14c-3.4-1.19-7.1-0.02-9.28,2.61
				C1618.08,1293.61,1622.25,1293.46,1626.58,1293.59z"/>
			<path class="st2" d="M1668.9,1238.02c4.22,1.47,8.96-1,10.33-5.37c1.32-4.25-0.86-8.52-5.08-9.94
				c-4.34-1.48-9.12,0.92-10.42,5.18C1662.55,1231.9,1664.97,1236.63,1668.9,1238.02z"/>
			<path class="st2" d="M1788.59,1133.44c3.94,1.37,8.26-0.61,9.71-4.44c1.48-3.94-0.86-8.74-4.9-10.01c-3.9-1.22-8.15,1-9.44,4.94
				C1782.6,1128.02,1784.56,1132.04,1788.59,1133.44z"/>
			<path class="st2" d="M1823.44,1116.19c3.98,1.06,8.23-1.33,9.3-5.24c1.04-3.9-1.38-8.28-5.2-9.42c-3.93-1.16-8.12,1.12-9.39,5.07
				C1816.79,1110.88,1819.08,1115.03,1823.44,1116.19z"/>
			<path class="st2" d="M1754.72,1150.88c3.97,1.21,8.35-1.15,9.41-5.07c1.02-3.72-1.18-7.94-4.82-9.2
				c-3.87-1.34-8.25,0.9-9.53,4.87C1748.47,1145.56,1750.6,1149.63,1754.72,1150.88z"/>
			<path class="st2" d="M1857.24,1098.53c3.95,1.31,8.35-0.91,9.54-4.82c1.19-3.87-1.25-8.41-5.1-9.52
				c-3.73-1.07-7.84,1.08-9.12,4.8C1851.15,1093.05,1853.17,1097.18,1857.24,1098.53z"/>
			<path class="st2" d="M1634.94,1254.77c3.95,1.33,8.37-0.85,9.62-4.76c1.21-3.84-1.2-8.41-5.04-9.54
				c-3.94-1.17-8.2,1.22-9.34,5.23C1629.06,1249.61,1631.09,1253.46,1634.94,1254.77z"/>
			<path class="st2" d="M1719.7,1167.85c3.64,1.61,7.88-0.08,9.47-3.78c1.62-3.78,0.01-7.88-3.7-9.47c-3.72-1.59-7.95,0.05-9.54,3.7
				C1714.38,1161.87,1716.11,1166.26,1719.7,1167.85z"/>
			<path class="st2" d="M1803.44,1022.28c3.64,0.98,7.42-1.17,8.53-4.83c1.12-3.72-0.83-7.38-4.55-8.57
				c-3.61-1.15-7.57,0.8-8.78,4.34C1797.4,1016.86,1799.74,1021.29,1803.44,1022.28z"/>
			<path class="st2" d="M1686.14,1185.14c3.5,1.21,7.49-0.78,8.69-4.31c1.24-3.6-0.65-7.43-4.24-8.66
				c-3.57-1.22-7.51,0.69-8.74,4.24C1680.65,1179.89,1682.63,1183.94,1686.14,1185.14z"/>
			<path class="st2" d="M1601.06,1271.74c3.57,1.09,7.43-0.97,8.54-4.58c1.15-3.62-0.87-7.4-4.5-8.52
				c-3.57-1.12-7.52,0.94-8.61,4.48C1595.41,1266.65,1597.53,1270.65,1601.06,1271.74z"/>
			<path class="st2" d="M1652.35,1202.17c3.44,1.01,7.18-1.03,8.08-4.42c0.81-3.1-1.15-6.8-4.18-7.86
				c-3.32-1.15-7.09,0.79-8.17,4.21C1646.95,1197.62,1648.8,1201.11,1652.35,1202.17z"/>
			<path class="st2" d="M1566.88,1288.31c3.16,1.09,6.67-0.79,7.64-4.07c0.95-3.23-0.58-6.18-3.77-7.26
				c-3.25-1.09-6.8,0.72-7.71,3.93C1562.2,1283.83,1564.02,1287.32,1566.88,1288.31z"/>
			<path class="st2" d="M1618.2,1219.13c3.02,0.91,6.3-0.88,7.23-3.97c0.97-3.15-0.72-6.27-3.87-7.21
				c-3.07-0.93-6.44,0.84-7.32,3.83C1613.37,1214.7,1615.28,1218.26,1618.2,1219.13z"/>
			<path class="st2" d="M1771.83,1097.46c2.87,0.97,6-0.48,7.12-3.28c1.16-2.98-0.43-6.43-3.45-7.46c-3.06-1.04-6.39,0.69-7.3,3.78
				C1767.37,1093.39,1768.99,1096.49,1771.83,1097.46z"/>
			<path class="st2" d="M1840.01,1062.47c3,1.21,6.41-0.31,7.49-3.34c1.06-3.03-0.64-6.42-3.7-7.34c-2.9-0.87-5.96,0.68-6.98,3.54
				C1835.78,1058.2,1837.19,1061.33,1840.01,1062.47z"/>
			<path class="st2" d="M1805.85,1079.95c3.02,1.16,6.41-0.42,7.43-3.48c1.01-3.03-0.75-6.4-3.82-7.27
				c-2.89-0.81-5.94,0.79-6.9,3.66C1801.57,1075.72,1803.03,1078.86,1805.85,1079.95z"/>
			<path class="st2" d="M1737.68,1114.67c2.92,0.98,6.04-0.53,7.01-3.37c0.93-2.76-0.7-6.08-3.45-7.03c-2.86-1-5.93,0.53-6.94,3.47
				C1733.27,1110.74,1734.69,1113.66,1737.68,1114.67z"/>
			<path class="st2" d="M1703.59,1131.85c2.69,0.88,5.65-0.62,6.52-3.29c0.88-2.7-0.64-5.66-3.33-6.54
				c-2.68-0.86-5.64,0.67-6.5,3.35C1699.41,1128.08,1700.88,1130.96,1703.59,1131.85z"/>
			<path class="st2" d="M1584.21,1235.73c2.49,0.75,5.16-0.63,6.07-3.14c0.93-2.59-0.21-5.16-2.73-6.21
				c-2.69-1.09-5.67,0.2-6.62,2.85C1580,1231.82,1581.58,1234.92,1584.21,1235.73z"/>
			<path class="st2" d="M1752.76,1001.04c2.43,0.92,5.19-0.31,6.23-2.76c1.18-2.77-0.01-5.54-2.81-6.55
				c-2.53-0.92-5.25,0.23-6.29,2.64C1748.8,996.87,1750.2,1000.07,1752.76,1001.04z"/>
			<path class="st2" d="M1533.08,1304.81c2.7,0.86,5.5-0.75,6.27-3.55c0.11-0.46,0.09-0.88,0.1-1.31c-0.69,0.28-1.49,0.36-2.4,0.18
				c-1.85-0.36-3.3-2.51-2.39-4.1c0.15-0.29,0.38-0.54,0.61-0.79c-2.29-0.34-4.55,0.83-5.36,3.02
				C1528.95,1300.83,1530.47,1303.97,1533.08,1304.81z"/>
			<path class="st2" d="M1669.56,1149.05c2.48,0.75,5.16-0.77,5.91-3.32c0.8-2.6-0.59-5.13-3.21-5.9c-2.54-0.73-5.31,0.74-6.01,3.19
				C1665.58,1145.38,1667.22,1148.36,1669.56,1149.05z"/>
			<path class="st2" d="M1635.57,1165.79c2.14,0.64,4.5-0.57,5.17-2.65c0.64-1.99-0.62-4.58-2.58-5.31
				c-2.23-0.83-4.86,0.58-5.47,2.94C1632.11,1162.97,1633.36,1165.13,1635.57,1165.79z"/>
			<path class="st2" d="M1549.9,1251.79c1.82,0.85,4.13-0.14,4.91-2.08c0.81-2.06-0.11-4.11-2.19-4.8c-2.03-0.68-3.57,0.1-4.59,1.84
				C1547.07,1248.41,1548.09,1250.97,1549.9,1251.79z"/>
			<path class="st2" d="M1497.03,1316.86c-0.32,2.08,0.67,3.73,2.66,3.8c1.12,0.04,2.27-0.63,3.87-1.41
				c-0.57,0.01-1.15-0.08-1.72-0.29c-1.84-0.73-3.05-2.63-3.16-4.58C1497.85,1314.89,1497.19,1315.81,1497.03,1316.86z"/>
			<path class="st2" d="M1601.87,1182.19c1.33,0.04,2.68-0.96,4.9-1.84c-1.52-1.92-2.22-3.41-3.41-4.12
				c-1.51-0.9-3.66,0.62-3.97,2.51C1599.12,1180.66,1600.03,1182.13,1601.87,1182.19z"/>
			<path class="st2" d="M1823.85,1025.55c1.12,0.29,2.57-0.73,4.88-1.56c-1.52-1.78-2.17-3.15-3.19-3.6
				c-1.72-0.75-3.42,0.13-3.55,1.99C1821.91,1023.45,1822.96,1025.33,1823.85,1025.55z"/>
			<path class="st2" d="M1789.39,1042.98c1.58,0.98,3.3,0.1,3.67-1.72c0.21-1.1-0.51-2.42-1.08-4.69c-2,1.41-3.67,1.99-4.11,3.07
				C1787.54,1040.47,1788.47,1042.42,1789.39,1042.98z"/>
			<path class="st2" d="M1755.28,1060.4c1.11,0.3,2.6-0.66,4.93-1.4c-1.46-1.84-2.05-3.23-3.07-3.72c-1.67-0.8-3.41,0.01-3.59,1.87
				C1753.44,1058.22,1754.42,1060.16,1755.28,1060.4z"/>
			<path class="st2" d="M1516.41,1268.1c1,0.25,2.29-0.67,4.29-1.36c-1.35-1.64-2.07-3.2-2.75-3.2c-1.12,0.01-2.19,1.07-3.28,1.71
				C1515.23,1266.25,1515.64,1267.9,1516.41,1268.1z"/>
			<path class="st2" d="M1720.94,1077.65c1.15-0.53,2.64-0.79,3.3-1.68c0.41-0.55-0.44-2.04-0.98-4.08
				c-1.73,1.2-3.23,1.71-3.61,2.66C1719.35,1075.3,1720.46,1076.59,1720.94,1077.65z"/>
			<path class="st2" d="M1778.35,1019.19c0.56,0.36,1.99-0.68,3.69-1.36c-0.99-1.46-1.41-2.72-2.26-3.23
				c-1.46-0.87-3.11-0.12-3.3,1.43C1776.34,1017.02,1777.39,1018.58,1778.35,1019.19z"/>
			<path class="st2" d="M1567.66,1198.49c0.7,0.29,1.79-0.39,3.17-0.78c-0.7-1.28-1.15-2.82-1.63-2.83
				c-0.97-0.04-1.95,0.79-2.92,1.25C1566.71,1196.95,1566.98,1198.23,1567.66,1198.49z"/>
			<path class="st2" d="M1690.42,1093.57c-0.8-1.24-1.35-2.74-1.83-2.72c-0.98,0.05-1.9,0.93-2.85,1.47c0.51,0.79,0.9,2.02,1.6,2.25
				C1688.03,1094.8,1689.05,1094.06,1690.42,1093.57z"/>
			<path class="st2" d="M1652.46,1111.3c0.57,0.36,1.47,0.17,2.89,0.26c-0.5-1.32-0.6-2.42-1.07-2.63c-0.58-0.24-1.6,0.14-2.19,0.56
				C1651.86,1109.67,1652.1,1111.05,1652.46,1111.3z"/>
			<path class="st2" d="M1420.9,1321.39c3.83,1.15,7.79-0.98,8.97-4.86c1.2-3.88-0.9-7.8-4.81-8.97c-3.84-1.17-7.88,0.98-9,4.79
				C1414.94,1316.1,1417.15,1320.23,1420.9,1321.39z"/>
			<path class="st2" d="M1501.84,1318.96c0.57,0.21,1.15,0.3,1.72,0.29c2.08,0.04,4.04-1.31,4.75-3.45c0.86-2.64-0.34-5.14-2.93-6.1
				c-2.73-1.01-5.69,0.37-6.52,3.06c-0.17,0.54-0.18,1.09-0.17,1.64C1498.8,1316.32,1500,1318.22,1501.84,1318.96z"/>
			<path class="st2" d="M1451.06,1301.5c2.17,0.5,4.49-0.86,5.03-2.95c0.51-2.02-0.9-4.58-2.87-5.16c-2.09-0.64-4.43,0.61-5.15,2.73
				C1447.27,1298.53,1448.59,1300.91,1451.06,1301.5z"/>
			<path class="st2" d="M1537.05,1300.13c0.91,0.18,1.72,0.1,2.4-0.18c0.91-0.37,1.58-1.07,1.67-2.27c0.1-1.46-1.03-3-2.04-5.54
				c-1.63,1.37-2.95,2.2-3.82,3.11c-0.24,0.25-0.46,0.5-0.61,0.79C1533.75,1297.62,1535.2,1299.77,1537.05,1300.13z"/>
			<path class="st2" d="M1485.08,1282.51c1.1,0.39,2.65-0.49,5.01-1.07c-1.31-1.93-1.8-3.36-2.77-3.91
				c-1.61-0.91-3.41-0.24-3.72,1.62C1483.42,1280.21,1484.25,1282.22,1485.08,1282.51z"/>
		</g>
	</g>
	<g>
		<path class="st3" d="M713.04,1007.71c-3.99,7.5-7.08,15.5-9.12,23.64c-3.13,12.41-3.88,26.77,4.04,36.83
			c1.75,2.23,3.89,4.2,5.17,6.73c7.39,14.59-17.29,43.76-17.64,61.9c-0.53,28.83,14.13,57.97,37.05,75.26
			c28.29,21.34,63.79,18.22,94.56,4.28c28.78-13.02,55.06-54.2,85.96-20.01c12.36,13.69,17.75,32.18,27.62,47.74
			c18.2,28.75,52.01,46.16,86.03,47.03c34.02,0.85,67.6-13.92,92.04-37.61c7.68-7.44,14.74-15.9,24.27-20.73
			c7.08-3.6,15.06-4.95,22.9-6.18c33-5.19,68.81-8.66,97.95,7.66c20.18,11.32,34.78,31.01,55.29,41.69
			c45.52,23.7,122.58-0.61,158.59-32.83c15.55-13.91,27.9-31.17,43.97-44.49c40.5-33.55,70.39-31.54,119.65-18.47
			c38.37,10.19,82.4,10.06,114.27-13.61c12.82-9.52,22.88-22.28,31.39-35.8c14.52-23.07,15.04-62.24,37.95-79.42
			c28.74-21.55,71.57,9.21,104.01,5.22c17.76-2.19,33.28-12.6,48.03-22.72c14.78-10.13,30.93-22.43,32.98-40.21
			c4.3-37.34-36.59-50.02-16.09-87.61c14.03-25.72,39.93-51.38,21.88-82.13c-12.81-21.81-36.8-34.39-60.49-43.24
			c-29.07-10.87-61.85-17.69-90.76-6.41c-24.32,9.49-42.15,30.3-63.64,45.13c-54.7,37.74-138.59,38.17-202.06,49.18
			c-75.57,13.1-150.87,27.86-225.8,44.27c-79.28,17.36-158.46,36.6-239.3,43.97c-42.15,3.84-84.72,1.52-126.93-0.02
			c-30.71-1.12-61.03,0.72-91.49-4.3c-29.48-4.84-54.44,9.4-85.21,9.09c-19.83-0.21-39.9-4.22-59.32-0.26
			C745.65,966.4,725.19,984.83,713.04,1007.71z"/>
		<path class="st4" d="M1993.92,905.98c14.03-25.72,39.93-51.38,21.88-82.13c-12.81-21.81-36.8-34.39-60.49-43.24
			c-29.07-10.87-61.85-17.69-90.76-6.41c-2.11,0.83-4.16,1.77-6.17,2.74c17.24,4.28,38.64,6.87,47.83,9.77
			c38.53,12.13,57.28,41.8,62.63,80.33c4.53,32.66,11.78,71.52-2.39,102.72c-19.26,42.44-66.86,41.13-105.22,32.38
			c-33.1-7.54-56.86-7.14-78.28,21.42c-19.71,26.26-32.33,57.77-58.51,78.79c-30.97,24.85-68.81,25.06-106.62,23.74
			c-34.02-1.18-68.2,14.5-96.59,32.44c-31.9,20.18-56.1,50.24-87.72,70.29c-37.22,23.63-73.31,18.32-111.98,1.64
			c-31.9-13.77-65.22-27.45-100.5-28.07c-36.98-0.66-71.04,15.27-102.75,32.64c-26.59,14.54-53.73,29.94-85.24,24.11
			c-34.32-6.34-60.57-31.83-82.4-57.34c-17.07-19.94-35.27-48.78-62.5-55.23c-20.23-4.77-40.41,4.83-58.92,11.72
			c-18.41,6.84-37.41,13.33-57.19,14.13c-30.86,1.23-58.57-12.21-70.38-41.87c-1.02-2.57-1.87-5.18-2.66-7.83
			c-1.98,5.06-3.41,9.87-3.49,14.06c-0.53,28.83,14.13,57.97,37.05,75.26c28.29,21.34,63.79,18.22,94.56,4.28
			c28.78-13.02,55.06-54.2,85.96-20.01c12.36,13.69,17.75,32.18,27.62,47.74c18.2,28.75,52.01,46.15,86.03,47.03
			c34.02,0.85,67.6-13.92,92.04-37.61c7.68-7.44,14.74-15.9,24.27-20.73c7.08-3.6,15.06-4.95,22.9-6.18
			c33-5.19,68.81-8.66,97.95,7.66c20.18,11.32,34.78,31.01,55.29,41.69c45.52,23.7,122.58-0.61,158.59-32.83
			c15.55-13.91,27.9-31.17,43.97-44.49c40.5-33.55,70.39-31.54,119.65-18.47c38.37,10.19,82.4,10.06,114.27-13.61
			c12.82-9.52,22.88-22.28,31.39-35.8c14.52-23.07,15.04-62.24,37.95-79.42c28.74-21.55,71.57,9.21,104.01,5.22
			c17.76-2.19,33.28-12.6,48.03-22.72c14.78-10.13,30.93-22.43,32.98-40.21C2014.3,956.25,1973.42,943.57,1993.92,905.98z"/>
		<g>
			<g>
				<path d="M979.63,1163.1c0,0,1.19,2.44,2.96,6.78c1.07,2.06,2.5,4.36,3.92,6.98c1.91,2.49,3.59,5.44,6.15,8.16
					c2.28,2.89,5.31,5.5,8.3,8.28c1.63,1.23,3.31,2.51,5.02,3.8c1.88,1.05,3.68,2.23,5.53,3.39c1.96,0.94,3.95,1.89,5.97,2.85
					c2.24,0.79,4.51,1.59,6.8,2.39c2.14,0.49,4.19,0.85,6.26,1.41l6.89,0.84c2.32,0.02,4.65,0.19,6.96,0.17
					c2.31-0.25,4.63-0.24,6.92-0.51c2.25-0.45,4.54-0.69,6.75-1.16c2.19-0.59,4.36-1.17,6.48-1.75c1.99-0.72,4.26-1.64,5.97-2.15
					c2.11-1,4.39-1.96,6.22-2.93c3.69-1.89,7.55-3.93,11.22-5.66c3.59-1.81,7.16-3.27,10.38-4.3c1.64-0.48,3.11-1.03,4.55-1.32
					c1.46-0.23,2.8-0.44,4-0.63c2.35-0.49,4.35-0.06,5.58-0.14c1.26,0.07,1.93,0.1,1.93,0.1s-0.62,0.27-1.79,0.79
					c-1.14,0.57-2.85,1.03-4.8,2.25c-1.99,1.06-4.27,2.51-6.77,4.33c-2.51,1.82-5.18,4.06-8.2,6.53c-2.99,2.49-6.15,5.31-10.14,8.19
					c-1.95,1.49-3.8,2.67-5.78,4.08c-2.57,1.52-4.75,2.54-7.24,3.86c-2.47,1.14-5.12,1.99-7.76,2.97c-2.67,0.85-5.47,1.4-8.28,2.05
					c-2.83,0.48-5.73,0.74-8.63,1.02c-2.91,0.09-5.85-0.03-8.78-0.07c-2.92-0.34-5.83-0.81-8.72-1.22c-3-0.76-6.01-1.65-8.86-2.54
					l-3.56-1.52l-3.93-1.78c-2.46-1.46-4.88-2.88-7.18-4.39c-2.14-1.73-4.26-3.39-6.22-5.12c-1.78-1.92-3.51-3.8-5.21-5.62
					c-3.1-3.85-5.73-7.7-7.5-11.61c-2.14-3.66-3.02-7.55-4.11-10.72c-0.76-3.39-1.19-6.38-1.45-8.71
					C979.48,1165.81,979.63,1163.1,979.63,1163.1z"/>
			</g>
		</g>
		<g>
			<g>
				<path d="M1617.18,1110.35c0,0,0.67-0.35,1.92-0.99c1.29-0.56,3.04-1.67,5.52-2.54c2.52-0.6,5.9-1.98,9.58-2.21
					c3.76-0.61,7.97-0.79,12.59-0.74c4.54,0.16,9.47,0.38,14.49,0.94c5.03,0.5,10.22,0.85,15.41,1.2c2.64,0.02,5.33,0.03,8.04,0.05
					c2.76-0.05,5.1-0.45,7.69-0.55c5.14-0.62,10.54-1.5,15.62-3.01c5.12-1.41,10.09-3.32,14.68-5.68c2.43-0.99,4.45-2.54,6.63-3.83
					c2.26-1.22,4.08-2.9,6-4.43c0.85-0.67,2.15-1.75,2.64-2.06l2.82-2.88c2.06-1.92,3.28-3.61,4.77-5.32
					c2.82-3.55,5.48-7.4,7.76-10.97c2.2-3.65,4.28-7.06,6-10.19c1.75-3.14,3.28-5.87,4.54-8.12c2.52-4.55,4.11-7.12,4.11-7.12
					s-0.28,3-1.14,8.16c-0.9,5.16-2.27,12.53-5.33,21.18c-1.56,4.36-3.41,8.96-6.25,13.77c-1.45,2.39-3.02,5.1-4.58,7.07
					c-0.79,1.07-1.6,2.15-2.41,3.23c-1.44,1.58-2.21,2.29-3.37,3.48c-2.13,2.2-4.34,4.44-6.95,6.19c-2.53,1.86-5.02,3.91-7.91,5.28
					c-5.52,3.27-11.58,5.63-17.74,7.42c-6.23,1.72-12.47,2.7-18.85,3.07c-3.19,0.06-6.58,0.21-9.48,0.01
					c-2.98-0.28-5.27-0.45-8.71-0.87c-5.76-0.92-11.08-2.26-15.99-3.52c-4.83-1.26-9.4-2.45-13.61-3.56
					c-4.15-0.86-7.98-1.8-11.4-2.2c-3.49-0.67-6.27-0.49-8.88-0.77c-2.56,0.06-4.65,0.31-6.04,0.38
					C1617.93,1110.31,1617.18,1110.35,1617.18,1110.35z"/>
			</g>
		</g>
		<g>
			<g>
				<path d="M1415.11,1228.37c0,0,0.82-1.04,2.36-2.57c1.44-1.6,4.03-3.43,6.4-5.84c1.23-1.15,2.55-2.32,3.96-3.45
					c1.42-1.07,2.84-2.58,4.4-3.78c1.53-1.29,3.19-2.46,4.73-3.87c1.56-1.37,3.22-2.63,4.89-3.9c1.59-1.35,3.17-2.73,4.83-3.96
					c1.69-1.22,3.2-2.58,4.77-3.81c1.52-1.28,3.26-2.3,4.65-3.53c1.45-1.18,2.89-2.25,4.29-3.23c2.91-1.87,5.06-3.75,6.97-4.86
					c1.81-1.17,3.03-1.78,3.03-1.78s-0.02,1.29-0.36,3.45c-0.41,2.11-0.84,5.35-2.31,8.69c-0.71,1.69-1.55,3.51-2.51,5.39
					c-0.93,1.92-2.28,3.65-3.6,5.52c-1.37,1.83-2.75,3.8-4.53,5.41c-1.68,1.73-3.5,3.35-5.31,5c-1.99,1.41-3.97,2.85-6.01,4.12
					c-1.96,1.38-4.16,2.34-6.25,3.27c-2.13,0.91-4.06,1.83-6.2,2.37c-2.1,0.57-4.08,1.01-5.91,1.35c-3.66,0.76-6.61,0.39-8.81,0.37
					C1416.41,1228.61,1415.11,1228.37,1415.11,1228.37z"/>
			</g>
		</g>
		<g>
			<g>
				<path d="M1861.7,992.55c0,0,1.25-0.95,3.49-2.3c1.07-0.73,2.54-1.39,4.48-1.9c0.98-0.28,2.02-0.58,3.11-0.89
					c1.05-0.19,2.17-0.3,3.35-0.45c2.4-0.35,4.91-0.27,7.6-0.13c2.69,0.16,5.39,0.64,8.19,1.19c5.51,1.22,11.01,3.09,16.21,5.11
					c2.48,0.94,4.97,1.87,7.41,2.79c2.29,0.9,4.63,1.64,6.91,2.45c2.25,0.67,4.45,1.41,6.53,1.9c2.06,0.42,4.11,1.06,5.95,1.16
					c0.97,0.15,1.89,0.29,2.77,0.42c0.88,0.02,1.71,0.03,2.5,0.04c1.61,0.01,3.15,0.13,4.31-0.17c2.43-0.35,4.09-0.49,4.09-0.49
					s-0.79,1.24-2.68,3.29c-0.9,1.12-2.22,2.15-3.91,3.13c-0.84,0.51-1.74,1.11-2.73,1.66c-1,0.42-2.1,0.78-3.25,1.2
					c-2.35,0.94-4.89,1.25-7.68,1.62c-2.75,0.28-5.63,0.2-8.58-0.01c-2.89-0.36-5.9-0.73-8.88-1.6c-3.25-0.75-5.43-1.64-8.5-2.69
					c-5.31-2.11-10.29-4.43-14.82-6.55c-2.26-0.97-4.43-2.08-6.49-2.91c-2.06-0.85-4.02-1.79-5.86-2.36
					c-0.94-0.36-1.84-0.7-2.7-1.03c-0.83-0.24-1.62-0.48-2.36-0.69c-1.51-0.44-3.03-0.95-4.36-1.03
					C1863.22,992.95,1861.7,992.55,1861.7,992.55z"/>
			</g>
		</g>
		<g>
			<g>
				<path d="M1895.52,794.08c0,0,1.86-0.26,5.06-0.41c1.58-0.11,3.53-0.12,5.8,0.14c2.29,0.14,4.9,0.39,7.59,1.07
					c2.77,0.48,5.72,1.28,8.78,2.39c3.11,0.97,6.17,2.61,9.4,4.2c3.06,1.88,6.33,3.76,9.2,6.33c3.09,2.3,5.65,5.32,8.34,8.19
					l3.32,4.69c1.01,1.25,1.98,3.29,2.93,5.1c2.11,3.68,3.11,7.34,4.23,10.85c0.76,3.63,1.53,7.11,1.55,10.5
					c0.11,3.38,0.01,6.53-0.63,9.42c-0.26,1.43-0.42,2.79-0.75,4.06c-0.46,1.25-0.89,2.42-1.3,3.53c-0.73,2.2-1.61,4-2.58,5.39
					c-1.77,2.8-2.92,4.2-2.92,4.2s-0.12-1.96-0.11-5.02c0.12-1.51-0.15-3.38-0.36-5.44c-0.13-2.04-0.48-4.29-1.04-6.69
					c-0.35-2.39-1.25-4.89-2.03-7.48c-0.7-2.6-2.03-5.2-3.05-7.88c-1.38-2.57-2.62-5.36-4.16-7.58c-0.74-1.2-1.29-2.31-2.48-3.8
					l-2.83-3.84c-2.09-2.27-4-4.69-6.29-6.76c-2.11-2.25-4.56-4.1-6.77-6.13c-2.44-1.74-4.64-3.76-7.03-5.27
					c-2.33-1.62-4.53-3.25-6.72-4.55c-4.33-2.76-7.94-4.96-10.81-6.56C1897.07,795.15,1895.52,794.08,1895.52,794.08z"/>
			</g>
		</g>
		<g>
			<g>
				<path d="M811.07,1162.03c0,0-0.32,1.55-1.12,4.06c-0.35,1.27-0.95,2.77-1.96,4.44c-0.91,1.75-2.06,3.69-3.57,5.47
					c-1.41,1.93-3.23,3.75-5.3,5.57c-2.01,1.9-4.52,3.41-7.09,5.04c-2.7,1.35-5.52,2.85-8.65,3.68c-3.04,1.14-6.35,1.47-9.61,2
					l-4.72,0.08c-1.27,0.11-3.19-0.19-4.87-0.38c-3.54-0.27-6.47-1.29-9.38-2.15c-2.81-1.16-5.54-2.21-7.85-3.75
					c-2.35-1.44-4.46-2.91-6.18-4.58c-1.82-1.51-3.22-3.19-4.37-4.73c-1.23-1.43-2.12-2.83-2.73-4.07c-1.29-2.4-1.82-3.84-1.82-3.84
					s1.56,0.51,3.91,1.49c1.13,0.55,2.64,1,4.24,1.57c1.59,0.6,3.39,1.16,5.36,1.65c1.88,0.64,3.99,1.06,6.15,1.53
					c2.11,0.57,4.46,0.7,6.71,1.15c2.32,0.14,4.76,0.5,6.83,0.44c1.11,0.02,2.01,0.14,3.57,0.02l3.8-0.16
					c2.36-0.36,4.75-0.49,7.07-1.06c2.37-0.36,4.6-1.13,6.89-1.66c2.14-0.83,4.44-1.35,6.42-2.29c2.05-0.83,4.05-1.61,5.8-2.56
					c1.87-0.84,3.5-1.66,4.93-2.48c1.44-0.79,2.88-1.52,3.94-2.32C809.67,1162.74,811.07,1162.03,811.07,1162.03z"/>
			</g>
		</g>
	</g>
	<g>
		<path class="st5" d="M1785.66,811c-89.09-12.82-179.7-19.26-269.53-9.58c-158.55,17.08-313.16,58.99-464.51,108.02
			c-38.38,12.43-76.6,25.35-114.75,38.48c-39.39,13.55-82.43,19.62-116.17,45.83c-34.74,26.94-64.47,60.27-87.59,97.67
			c57.62,9.52,118.35,11.09,171.64,37.03c37.92,1.1,75.78,3.39,113.29,7.7c61.94,7.12,122.52,23.01,182.07,41.08
			c30.73,9.33,61.23,19.35,91.76,29.29c40.18,13.09,67.38,24.47,104.82-2.61c85.64-61.96,190.42-125.12,285.44-170.89
			c63.81-30.74,146.59-59.67,206.58-75.77c12.27-14.97,24.45-29.97,36.86-44.8c2.66-3.19,5.59-5.53,8.7-7.21
			C1897.58,857.47,1848.15,819.99,1785.66,811z"/>
		<path class="st6" d="M1677.88,990.2c-95.03,45.77-199.81,108.93-285.44,170.88c-37.43,27.08-64.64,15.71-104.81,2.63
			c-30.55-9.95-61.04-19.97-91.76-29.29c-59.56-18.07-120.14-33.98-182.09-41.08c-91.82-10.56-185.69-9.26-277.41-7.21
			c-8.95,13.93-14.49,24.54-4.61,43.06c0.19-0.01,185.25-4.67,286.28,6.95c61.94,7.12,122.52,23.01,182.07,41.08
			c30.73,9.33,61.23,19.35,91.76,29.29c40.18,13.09,67.38,24.47,104.82-2.61c85.64-61.96,190.42-125.12,285.44-170.89
			c99.21-47.78,226.58-84.2,260.24-81.69c3.19-19.78,0.62-35-9.46-47.92C1878.41,912.49,1761.68,949.83,1677.88,990.2z"/>
	</g>
	<path class="st7" d="M1721.95,669.6c-81.33,5.74-163.11,11.52-242.49,30.07c-55.54,12.98-109.37,32.1-164.11,48.08
		c-75.68,22.1-153.01,38.19-230.26,54.26c-28.3,5.88-65.88,9.83-104.71,15.47l-29.5-27.23c-48.01,8.36-94.49,25.28-136.35,49.62
		c-15.69,9.12-31.26,19.82-40.15,35.21c-11.09,19.19-10.05,42.48-6.67,64.03c6.67,42.59,23.43,86.77,60.33,110.96
		c28.19,18.47,63.86,22.56,98.08,24.66c102.9,6.39,250.5-1.12,429.9-26.29c184.21-25.84,389.07-78.6,441.9-127.7
		c80.87-75.18,72.63-142.06,59.45-184.1C1839.96,680.98,1786.02,665.08,1721.95,669.6z"/>
	<path class="st8" d="M1799.92,843.7c-31.6,41.61-80.1,45.49-126.66,59.86c-26.03,8.04-49.89,18.99-72.78,33.64
		c-20.08,12.85-40.13,26.59-62.53,35.11c-48.33,18.38-99.34,19.64-150.27,16.02c-25.76-1.81-52.89-7.06-78.61-4.2
		c-21.52,2.39-41.05,10.84-60.95,18.81c-44.68,17.9-84.17,25.26-131.19,12.15c-36.11-10.07-75.16-33.01-113.81-25.2
		c-21.99,4.45-41.29,17.53-63.67,21.41c-18.77,3.28-39.81,1.97-58.34-2.51c-20.4-4.91-39.2-14.84-50.86-32.87
		c-10.17-15.75-10.3-32.74-13.58-50.46c-2.68-14.48-8.6-22.43-24.18-18.35c-8.43,2.2-19.98,8.97-26.6,17.28
		c0.42,4.96,1.05,9.88,1.8,14.73c6.67,42.59,23.43,86.77,60.33,110.96c28.19,18.47,63.86,22.56,98.08,24.66
		c102.9,6.39,250.5-1.12,429.9-26.29c184.21-25.84,389.07-78.6,441.9-127.7c69.53-64.66,73.17-123.12,64.45-164.99
		C1831.72,772.62,1820.66,816.39,1799.92,843.7z"/>
	<g>
		<path class="st5" d="M1760.77,606.95c-89.11-12.83-179.7-19.25-269.53-9.57c-158.57,17.07-313.15,58.97-464.51,108
			c-38.38,12.43-76.61,25.35-114.74,38.48c-39.42,13.55-82.43,19.63-116.18,45.81c-34.74,26.97-64.46,60.29-87.59,97.67
			c57.61,9.52,118.36,11.09,171.65,37.03c37.91,1.1,75.77,3.38,113.27,7.72c61.96,7.11,122.53,23,182.1,41.08
			c30.72,9.31,61.22,19.35,91.75,29.29c40.18,13.07,67.39,24.45,104.83-2.63c85.62-61.95,190.41-125.11,285.43-170.88
			c63.8-30.72,146.59-59.66,206.58-75.78c12.24-14.96,24.44-29.97,36.85-44.81c2.65-3.16,5.61-5.52,8.71-7.2
			C1872.69,653.43,1823.26,615.93,1760.77,606.95z"/>
		<path class="st6" d="M1652.98,786.15c-95.03,45.77-199.81,108.93-285.43,170.88c-37.44,27.07-64.64,15.71-104.82,2.62
			c-30.52-9.94-61.04-19.97-91.76-29.27c-59.55-18.08-120.13-33.96-182.08-41.08c-91.8-10.56-185.69-9.25-277.4-7.21
			c-8.95,13.93-14.49,24.52-4.62,43.05c0.19,0,185.25-4.67,286.26,6.97c61.96,7.11,122.53,23,182.1,41.08
			c30.72,9.31,61.22,19.35,91.75,29.29c40.18,13.07,67.39,24.45,104.83-2.63c85.62-61.95,190.41-125.11,285.43-170.88
			c99.2-47.8,226.58-84.2,260.22-81.7c3.21-19.79,0.64-34.98-9.43-47.92C1853.51,708.44,1736.79,745.78,1652.98,786.15z"/>
	</g>
	<g>
		<path class="st9" d="M1471.71,779.63c6.52,46.42-61.52,94.33-151.95,107.01c-90.41,12.68-168.98-14.66-175.5-61.06
			c-6.5-46.4,61.52-94.31,151.95-106.99C1386.62,705.91,1465.2,733.25,1471.71,779.63z"/>
		<path class="st9" d="M1466.45,742.14c6.52,46.41-61.52,94.32-151.95,106.99c-90.43,12.69-168.98-14.64-175.5-61.04
			c-6.51-46.42,61.51-94.32,151.93-106.99C1381.36,668.4,1459.94,695.74,1466.45,742.14z"/>
	</g>
	<g>
		<path class="st9" d="M1176.21,762.62c6.52,46.4-61.51,94.3-151.93,106.98c-90.42,12.68-168.99-14.65-175.51-61.06
			c-6.52-46.4,61.51-94.3,151.94-106.97C1091.12,688.88,1169.7,716.21,1176.21,762.62z"/>
		<path class="st9" d="M1170.95,725.11c6.52,46.41-61.52,94.31-151.94,106.99c-90.42,12.69-169-14.66-175.51-61.06
			c-6.5-46.4,61.53-94.32,151.95-106.99C1085.87,651.37,1164.45,678.71,1170.95,725.11z"/>
	</g>
	<g>
		<path class="st9" d="M1752.82,680.22c6.52,46.41-61.52,94.3-151.95,107c-90.42,12.67-168.99-14.64-175.51-61.07
			c-6.51-46.39,61.52-94.3,151.94-106.98C1667.74,606.48,1746.32,633.82,1752.82,680.22z"/>
		<path class="st9" d="M1747.56,642.71c6.51,46.4-61.52,94.3-151.94,106.99s-169.01-14.65-175.51-61.04
			c-6.5-46.41,61.52-94.3,151.95-106.99C1662.48,568.99,1741.05,596.31,1747.56,642.71z"/>
	</g>
	<path class="st10" d="M788.23,823.19c1.66,5.88,4.41,11.48,8.98,15.42c4.94,4.28,11.46,6.21,17.81,7.61
		c26.14,5.74,53.73,4.63,79.33-3.17c17.66-5.38,64.25-21.36,80.98-7.48c5.25,4.34,7.06,11.49,8.61,18.13
		c7.35,31.7,58.67,97.15,66.26,28.4c0.63-5.7-0.62-11.4-0.69-17.13c-0.11-10.67,7.37-32.79,19.83-35.56
		c11.59-2.6,23.8,14.26,35.1,19.42c27.43,12.51,62.23,10.24,86.31-8.55c13.9,6.68,25.9,18.83,28.91,33.95
		c3.94,19.7-7.69,39.9-4.45,59.74c0.77,4.64,2.45,9.34,5.93,12.51c2.68,2.44,6.17,3.77,9.62,4.79c15.9,4.63,34.76,2.81,46.41-8.93
		c14.91-15.04,12.86-40.15,4.74-59.72c-4.44-10.66-20.61-37.81-10.56-49.31c10.17-11.62,33.28-0.79,45.45,1.84
		c62.18,13.42,117.49-68.98,178.4-31.43c51.5,31.73,15.85,66.38,19.01,111.01c3.06,43.09,69.33,57.36,81.61,14.16
		c15.45-54.42-14.9-96.61-33.88-144.68c-17.83-45.21,26.29-42.16,61.21-38.47c48.28,5.13,98.48-12.67,132.78-46.99
		c3.8-3.82,7.47-7.85,12.02-10.71c14.02-8.8,32.37-4.39,48.55-8.03c16.02-3.61,29.84-15.87,35.31-31.37
		c17.25-48.89-44.17-70.49-80.41-78.5c-39.55-8.76-79.63-14.97-119.88-19.56c-127.64-14.54-256.84-12.69-384.65,0.33
		c-141.9,14.46-286.47,44.29-405.48,122.92c-13.75,9.08-28.24,19.27-37.29,33.38c-8.46,13.19-8.07,28.46-15.36,41.84
		c-12.6,23.11-27,41.7-21.52,69.83C787.5,820.33,787.83,821.76,788.23,823.19z"/>
	<g>
		<path class="st0" d="M1818.93,539.27c-134.48-172.98-383.7-196.79-573.52-168.59c-170.29,30-408.9,99.21-504.36,319.79
			c-71.99,166.38,265.04,129.81,574.35,83.12C1624.72,726.91,1927.88,679.41,1818.93,539.27z"/>
		<path class="st1" d="M1818.93,539.27c-81.9-105.33-206.34-155.3-333.99-171.94c2.03,6.89,3.71,13.97,4.97,21.3
			c11.47,66.35,2.97,144.4-79.2,214.59c-220.49,188.4-501.12,142.03-576.34,121.56c-33.56-9.12-65.28-25.01-92.67-46.45
			c-118.04,211.81,506.07,105.47,573.7,95.26C1624.72,726.91,1927.88,679.41,1818.93,539.27z"/>
		<g>
			<path class="st2" d="M1783.91,658.87c6.17,1.98,12.65-1.5,14.55-7.78c1.83-6.12-1.41-12.23-7.51-14.18
				c-6.03-1.93-12.4,1.22-14.44,7.15C1774.42,650.1,1777.82,656.9,1783.91,658.87z"/>
			<path class="st2" d="M1749.75,676.32c5.97,1.89,12.31-1.38,14.33-7.36c2.06-6.07-0.95-12.33-6.95-14.46
				c-6.2-2.23-12.83,0.93-14.91,7.08C1740.19,667.63,1743.64,674.4,1749.75,676.32z"/>
			<path class="st2" d="M1810.83,626.51c-1.61,4.47-0.09,9.47,3.3,12.54c5.16-5.8,9.97-11.72,14.46-17.7
				c-0.94-0.7-1.98-1.3-3.18-1.7C1819.41,617.59,1812.95,620.64,1810.83,626.51z"/>
			<path class="st2" d="M1715.31,693.62c1.67,0.57,3.38,0.7,5.04,0.47c1.28-0.4,2.56-0.8,3.85-1.2c2.63-1.39,4.74-3.82,5.69-6.95
				c1.86-6.14-1.38-12.21-7.56-14.12c-6-1.87-12.45,1.42-14.32,7.35C1706.13,685.03,1709.47,691.64,1715.31,693.62z"/>
			<path class="st2" d="M1695.85,701.48c0.67-5.22-2.38-10.26-7.58-11.98c-5.97-1.99-12.54,1.37-14.32,7.32
				c-1.04,3.45-0.24,7.14,1.77,9.92C1682.48,705.15,1689.17,703.4,1695.85,701.48z"/>
			<path class="st2" d="M1645.57,712.2c4.4-0.52,8.76-1.2,13.09-1.94c-1.2-1.38-2.71-2.47-4.52-3.11c-5.44-1.9-11.3,0.81-13.55,6.07
				C1642.15,712.77,1643.79,712.39,1645.57,712.2z"/>
			<path class="st2" d="M1732.46,640.92c5.34,1.81,11.18-1.09,13.04-6.47c1.91-5.51-0.75-11.13-6.2-13.09
				c-5.64-2-11.68,0.9-13.45,6.49C1724.16,633.13,1727.2,639.13,1732.46,640.92z"/>
			<path class="st2" d="M1766.87,623.54c5.39,1.72,11.12-1.25,12.93-6.69c1.82-5.54-0.93-11.1-6.42-12.98
				c-5.44-1.85-11.24,0.88-13.17,6.21C1758.25,615.47,1761.38,621.8,1766.87,623.54z"/>
			<path class="st2" d="M1800.87,606.04c5.33,1.86,11.19-1.02,13.09-6.39c1.95-5.53-0.68-11.16-6.12-13.13
				c-5.41-1.96-11.25,0.61-13.32,5.9C1792.43,597.72,1795.43,604.16,1800.87,606.04z"/>
			<path class="st2" d="M1698.54,658.39c5.4,1.63,11.1-1.47,12.78-6.96c1.7-5.52-1.26-11.06-6.82-12.75
				c-5.44-1.68-11.28,1.4-12.88,6.77C1690.05,650.73,1693.28,656.8,1698.54,658.39z"/>
			<path class="st2" d="M1846.97,577.75c-2.53-2.96-4.93-6-7.27-9.08c-4.85-0.58-9.62,2.33-11.04,7.06
				c-1.59,5.32,1.69,11.37,6.97,12.87c5.24,1.5,10.75-1.43,12.49-6.62c0.29-0.84,0.42-1.67,0.48-2.49
				C1848.06,578.91,1847.5,578.35,1846.97,577.75z"/>
			<path class="st2" d="M1663.98,675.49c5.16,1.8,10.96-0.99,12.82-6.16c1.88-5.23-0.75-10.96-5.91-12.87
				c-5.39-2.02-11.39,0.82-13.2,6.23C1655.96,667.84,1658.84,673.7,1663.98,675.49z"/>
			<path class="st2" d="M1630.17,692.62c5.1,1.61,10.54-1.09,12.27-6.08c1.77-5.08-1.23-11.03-6.36-12.66
				c-5.24-1.62-10.78,1.4-12.36,6.77C1622.19,685.86,1624.95,690.97,1630.17,692.62z"/>
			<path class="st2" d="M1595.93,709.76c4.85,1.56,10.05-1.01,11.77-5.85c1.73-4.88-0.66-10.08-5.48-11.93
				c-5.03-1.91-10.53,0.58-12.3,5.62C1588.17,702.57,1590.91,708.11,1595.93,709.76z"/>
			<path class="st2" d="M1749.75,588.14c4.83,1.58,10.1-1.28,11.58-6.23c1.42-4.81-1.14-9.65-5.93-11.19
				c-4.71-1.53-9.83,0.96-11.5,5.55C1742.22,580.93,1745,586.6,1749.75,588.14z"/>
			<path class="st2" d="M1784.36,570.68c4.75,1.31,9.69-1.43,11.13-6.17c1.42-4.76-1.19-9.69-5.93-11.18
				c-4.71-1.49-9.81,1.1-11.36,5.74C1776.62,563.85,1779.52,569.34,1784.36,570.68z"/>
			<path class="st2" d="M1715.3,605.37c4.56,1.66,9.79-0.81,11.51-5.42c1.74-4.68-0.55-9.8-5.17-11.59
				c-4.82-1.84-10.26,0.67-11.9,5.51C1708.19,598.42,1710.75,603.73,1715.3,605.37z"/>
			<path class="st2" d="M1681.48,622.75c4.73,1.46,9.72-1.16,11.19-5.88c1.47-4.69-1.19-9.73-5.88-11.19
				c-4.71-1.46-9.73,1.16-11.2,5.89C1674.12,616.29,1676.74,621.28,1681.48,622.75z"/>
			<path class="st2" d="M1561.9,726.7c4.74,1.5,9.74-1.09,11.24-5.81c1.49-4.68-1.12-9.74-5.81-11.24c-4.7-1.5-9.75,1.1-11.24,5.81
				C1554.57,720.18,1557.17,725.19,1561.9,726.7z"/>
			<path class="st2" d="M1817.4,536.46c-2.01,0.96-3.66,2.64-4.51,4.87c-1.79,4.74,0.47,9.7,5.19,11.41
				c3.26,1.18,6.69,0.35,9.02-1.8C1823.85,546.13,1820.64,541.26,1817.4,536.46z"/>
			<path class="st2" d="M1646.99,639.81c4.7,1.65,9.78-0.81,11.27-5.48c1.41-4.34-1.08-9.42-5.4-10.97
				c-4.59-1.65-9.67,0.87-11.21,5.6C1640.16,633.6,1642.44,638.23,1646.99,639.81z"/>
			<path class="st2" d="M1613.17,657.19c4.54,1.4,9.44-1.21,10.72-5.73c1.22-4.31-1.26-9.05-5.47-10.5
				c-4.44-1.54-9.39,0.97-10.84,5.5C1606.1,651.06,1608.55,655.76,1613.17,657.19z"/>
			<path class="st2" d="M1527.56,743.55c4.47,1.58,9.39-0.87,10.83-5.38c1.38-4.32-0.93-8.97-5.24-10.5
				c-4.25-1.48-9.02,0.69-10.64,4.9C1520.8,737,1523.09,741.96,1527.56,743.55z"/>
			<path class="st2" d="M1578.74,674.24c4.21,1.47,8.97-0.99,10.32-5.37c1.33-4.25-0.85-8.51-5.05-9.95
				c-4.36-1.46-9.13,0.92-10.42,5.2C1572.4,668.12,1574.81,672.86,1578.74,674.24z"/>
			<path class="st2" d="M1698.44,569.67c3.94,1.37,8.27-0.62,9.7-4.45c1.49-3.93-0.85-8.72-4.89-9.99c-3.9-1.22-8.13,0.99-9.44,4.94
				C1692.43,564.23,1694.4,568.26,1698.44,569.67z"/>
			<path class="st2" d="M1733.3,552.42c3.98,1.07,8.22-1.33,9.28-5.25c1.05-3.9-1.35-8.28-5.19-9.42c-3.92-1.16-8.12,1.11-9.4,5.08
				C1726.63,547.11,1728.92,551.25,1733.3,552.42z"/>
			<path class="st2" d="M1664.56,587.1c3.98,1.22,8.35-1.15,9.42-5.08c1.02-3.71-1.2-7.92-4.84-9.19c-3.86-1.34-8.23,0.91-9.52,4.87
				C1658.31,581.78,1660.45,585.85,1664.56,587.1z"/>
			<path class="st2" d="M1767.07,534.75c3.96,1.31,8.36-0.91,9.56-4.8c1.19-3.86-1.25-8.42-5.1-9.54c-3.72-1.07-7.84,1.09-9.14,4.8
				C1760.98,529.27,1763.01,533.4,1767.07,534.75z"/>
			<path class="st2" d="M1544.78,690.99c3.96,1.33,8.37-0.85,9.61-4.76c1.23-3.85-1.18-8.41-5.04-9.55
				c-3.91-1.17-8.19,1.23-9.34,5.25C1538.9,685.83,1540.94,689.69,1544.78,690.99z"/>
			<path class="st2" d="M1629.54,604.06c3.64,1.62,7.89-0.07,9.47-3.76c1.63-3.78,0.01-7.89-3.71-9.48
				c-3.71-1.59-7.94,0.06-9.52,3.69C1624.22,598.09,1625.94,602.47,1629.54,604.06z"/>
			<path class="st2" d="M1713.29,458.5c3.63,0.98,7.41-1.16,8.51-4.82c1.12-3.72-0.82-7.4-4.53-8.58c-3.63-1.15-7.58,0.81-8.8,4.34
				C1707.24,453.08,1709.58,457.52,1713.29,458.5z"/>
			<path class="st2" d="M1595.98,621.37c3.5,1.2,7.49-0.77,8.71-4.31c1.23-3.6-0.66-7.44-4.26-8.66c-3.57-1.22-7.51,0.69-8.72,4.22
				C1590.5,616.11,1592.48,620.16,1595.98,621.37z"/>
			<path class="st2" d="M1510.89,707.96c3.58,1.1,7.44-0.97,8.56-4.57c1.12-3.63-0.87-7.42-4.51-8.53c-3.57-1.1-7.52,0.96-8.6,4.49
				C1505.25,702.87,1507.37,706.87,1510.89,707.96z"/>
			<path class="st2" d="M1562.2,638.38c3.45,1.01,7.19-1.03,8.08-4.4c0.82-3.11-1.15-6.82-4.18-7.88c-3.32-1.15-7.07,0.79-8.17,4.22
				C1556.78,633.84,1558.65,637.34,1562.2,638.38z"/>
			<path class="st2" d="M1476.73,724.55c3.16,1.09,6.65-0.79,7.62-4.09c0.97-3.22-0.58-6.18-3.78-7.26c-3.25-1.07-6.8,0.73-7.7,3.93
				C1472.05,720.05,1473.86,723.54,1476.73,724.55z"/>
			<path class="st2" d="M1528.02,655.35c3.05,0.91,6.31-0.88,7.25-3.98c0.96-3.13-0.72-6.26-3.87-7.21
				c-3.06-0.93-6.44,0.85-7.35,3.85C1523.2,650.93,1525.12,654.48,1528.02,655.35z"/>
			<path class="st2" d="M1681.68,533.67c2.86,0.98,6.01-0.46,7.1-3.28c1.18-2.97-0.42-6.41-3.44-7.45c-3.05-1.04-6.38,0.69-7.3,3.78
				C1677.22,529.6,1678.83,532.72,1681.68,533.67z"/>
			<path class="st2" d="M1749.84,498.69c3.01,1.21,6.43-0.31,7.5-3.35c1.06-3.01-0.66-6.4-3.7-7.32c-2.9-0.9-5.96,0.67-6.99,3.53
				C1745.63,494.42,1747.01,497.55,1749.84,498.69z"/>
			<path class="st2" d="M1715.69,516.15c3.02,1.18,6.4-0.41,7.44-3.46c1-3.04-0.77-6.4-3.84-7.28c-2.88-0.82-5.94,0.79-6.92,3.65
				C1711.41,511.95,1712.87,515.07,1715.69,516.15z"/>
			<path class="st2" d="M1647.52,550.88c2.93,0.98,6.05-0.51,7.01-3.35c0.94-2.76-0.69-6.07-3.45-7.03c-2.85-1-5.92,0.53-6.93,3.47
				C1643.11,546.97,1644.53,549.88,1647.52,550.88z"/>
			<path class="st2" d="M1613.44,568.08c2.68,0.88,5.64-0.63,6.5-3.31c0.88-2.69-0.64-5.67-3.32-6.53c-2.69-0.87-5.65,0.66-6.5,3.35
				C1609.25,564.3,1610.73,567.18,1613.44,568.08z"/>
			<path class="st2" d="M1494.05,671.94c2.49,0.76,5.16-0.63,6.07-3.11c0.93-2.59-0.22-5.18-2.73-6.21c-2.7-1.1-5.68,0.18-6.63,2.84
				C1489.85,668.04,1491.42,671.14,1494.05,671.94z"/>
			<path class="st2" d="M1662.61,437.27c2.42,0.91,5.19-0.31,6.23-2.77c1.18-2.78-0.02-5.54-2.81-6.55
				c-2.54-0.92-5.27,0.24-6.3,2.63C1658.66,433.08,1660.03,436.29,1662.61,437.27z"/>
			<path class="st2" d="M1442.92,741.02c2.7,0.87,5.51-0.72,6.27-3.56c0.11-0.44,0.1-0.86,0.1-1.29c-0.69,0.26-1.52,0.36-2.39,0.18
				c-1.86-0.36-3.29-2.51-2.4-4.11c0.15-0.26,0.4-0.53,0.62-0.78c-2.3-0.34-4.56,0.82-5.37,3.03
				C1438.79,737.05,1440.32,740.18,1442.92,741.02z"/>
			<path class="st2" d="M1579.39,585.28c2.49,0.72,5.16-0.78,5.93-3.32c0.79-2.62-0.58-5.14-3.21-5.91
				c-2.54-0.74-5.32,0.73-6.03,3.2C1575.42,581.6,1577.06,584.58,1579.39,585.28z"/>
			<path class="st2" d="M1545.41,602.01c2.15,0.63,4.51-0.57,5.19-2.64c0.64-1.99-0.64-4.59-2.59-5.31
				c-2.23-0.84-4.86,0.57-5.47,2.94C1541.95,599.19,1543.2,601.35,1545.41,602.01z"/>
			<path class="st2" d="M1459.74,688.02c1.82,0.84,4.14-0.15,4.92-2.09c0.8-2.05-0.11-4.11-2.2-4.8c-2.02-0.68-3.57,0.09-4.58,1.83
				C1456.92,684.64,1457.93,687.19,1459.74,688.02z"/>
			<path class="st2" d="M1406.86,753.08c-0.32,2.08,0.67,3.74,2.68,3.81c1.1,0.04,2.27-0.63,3.85-1.41
				c-0.58-0.01-1.15-0.08-1.72-0.31c-1.84-0.72-3.05-2.63-3.15-4.58C1407.69,751.14,1407.03,752.04,1406.86,753.08z"/>
			<path class="st2" d="M1511.71,618.4c1.33,0.04,2.68-0.95,4.9-1.83c-1.52-1.92-2.22-3.42-3.42-4.11c-1.52-0.91-3.66,0.6-3.95,2.48
				C1508.96,616.87,1509.86,618.35,1511.71,618.4z"/>
			<path class="st2" d="M1733.67,461.76c1.14,0.29,2.58-0.72,4.88-1.53c-1.52-1.8-2.15-3.16-3.18-3.61
				c-1.71-0.76-3.42,0.14-3.54,1.97C1731.75,459.67,1732.81,461.56,1733.67,461.76z"/>
			<path class="st2" d="M1699.23,479.22c1.58,0.96,3.29,0.09,3.67-1.72c0.23-1.11-0.51-2.42-1.09-4.7c-2,1.4-3.67,1.99-4.09,3.06
				C1697.38,476.69,1698.31,478.66,1699.23,479.22z"/>
			<path class="st2" d="M1665.11,496.61c1.14,0.32,2.61-0.67,4.93-1.39c-1.47-1.84-2.05-3.22-3.07-3.72
				c-1.67-0.79-3.41,0.01-3.59,1.87C1663.28,494.45,1664.26,496.37,1665.11,496.61z"/>
			<path class="st2" d="M1426.26,704.32c1,0.24,2.29-0.67,4.27-1.37c-1.33-1.62-2.05-3.19-2.73-3.18c-1.1,0.03-2.2,1.09-3.28,1.7
				C1425.07,702.48,1425.48,704.13,1426.26,704.32z"/>
			<path class="st2" d="M1630.79,513.87c1.14-0.52,2.64-0.8,3.28-1.68c0.42-0.55-0.43-2.05-0.97-4.08c-1.72,1.19-3.23,1.7-3.61,2.67
				C1629.2,511.52,1630.31,512.81,1630.79,513.87z"/>
			<path class="st2" d="M1688.18,455.4c0.57,0.36,2-0.67,3.69-1.34c-0.98-1.47-1.4-2.73-2.25-3.24c-1.46-0.86-3.11-0.11-3.31,1.43
				C1686.19,453.25,1687.23,454.8,1688.18,455.4z"/>
			<path class="st2" d="M1477.51,634.72c0.69,0.27,1.78-0.39,3.15-0.79c-0.69-1.26-1.14-2.82-1.6-2.83
				c-0.96-0.04-1.97,0.78-2.94,1.25C1476.56,633.17,1476.83,634.44,1477.51,634.72z"/>
			<path class="st2" d="M1600.26,529.79c-0.8-1.22-1.35-2.73-1.84-2.71c-0.95,0.03-1.88,0.92-2.84,1.45c0.53,0.8,0.89,2.04,1.6,2.26
				C1597.87,531.02,1598.91,530.28,1600.26,529.79z"/>
			<path class="st2" d="M1562.32,547.52c0.56,0.35,1.45,0.17,2.87,0.26c-0.49-1.31-0.59-2.42-1.08-2.63
				c-0.57-0.24-1.59,0.14-2.18,0.58C1561.72,545.89,1561.93,547.27,1562.32,547.52z"/>
			<path class="st2" d="M1330.74,757.59c3.84,1.18,7.78-0.97,8.98-4.85c1.18-3.87-0.91-7.79-4.81-8.97
				c-3.85-1.17-7.89,0.99-9.02,4.8C1324.77,752.33,1326.99,756.46,1330.74,757.59z"/>
			<path class="st2" d="M1411.68,755.17c0.56,0.23,1.14,0.3,1.72,0.31c2.08,0.01,4.04-1.31,4.75-3.46c0.87-2.64-0.34-5.14-2.92-6.11
				c-2.71-1.03-5.68,0.38-6.53,3.06c-0.16,0.54-0.19,1.09-0.16,1.63C1408.64,752.54,1409.84,754.45,1411.68,755.17z"/>
			<path class="st2" d="M1360.91,737.72c2.16,0.51,4.48-0.86,5.01-2.94c0.51-2.03-0.89-4.58-2.86-5.16
				c-2.11-0.64-4.44,0.61-5.15,2.73C1357.12,734.74,1358.45,737.14,1360.91,737.72z"/>
			<path class="st2" d="M1446.9,736.36c0.88,0.17,1.7,0.08,2.39-0.18c0.92-0.37,1.58-1.07,1.66-2.28c0.11-1.46-1.03-2.98-2.01-5.54
				c-1.63,1.38-2.96,2.2-3.82,3.11c-0.22,0.25-0.47,0.51-0.62,0.78C1443.61,733.84,1445.04,735.99,1446.9,736.36z"/>
			<path class="st2" d="M1394.92,718.73c1.1,0.38,2.66-0.49,5.01-1.07c-1.31-1.93-1.8-3.36-2.77-3.93c-1.61-0.9-3.41-0.23-3.71,1.64
				C1393.25,716.43,1394.09,718.45,1394.92,718.73z"/>
		</g>
		<path class="st11" d="M895.4,585.92c-7.57,12.07-11.49,24.14-9.85,35.72c12.22,85.9,165.85,29.71,208.71,8.22
			c25.05-12.57,49.31-28.19,66.37-50.42c17.03-22.25,25.96-52.09,17.99-78.96c-20.69-69.7-93.84-47.8-142.02-22.15
			C1004.4,495.48,923.92,540.57,895.4,585.92z"/>
	</g>
	<g>
		<g>
			<path d="M968.93,939.65c0,0-1.02,0.45-2.8,1.24c-0.98,0.41-1.77,0.86-2.76,1.37c-0.97,0.46-2.13,1.15-3.42,1.94
				c-5.13,3.05-11.47,8.23-16.48,14.43c-1.15,1.6-2.45,3.14-3.41,4.81c-1.09,1.61-1.92,3.29-2.76,4.9c-1.49,3.28-2.63,6.44-3.06,9.2
				c-0.32,1.37-0.47,2.64-0.49,3.76c-0.1,1.12-0.17,2.11-0.07,2.91c0.07,1.61,0.12,2.52,0.12,2.52l0.04,0.82
				c0.16,3.35-2.43,6.21-5.78,6.37c-3.24,0.16-6.01-2.27-6.34-5.45c0,0-0.13-1.3-0.37-3.58c-0.16-1.14-0.16-2.52-0.1-4.11
				c-0.02-1.6,0.11-3.38,0.44-5.29c0.45-3.87,1.75-8.18,3.52-12.57c0.97-2.14,1.98-4.37,3.24-6.46c1.15-2.18,2.62-4.16,3.99-6.23
				c5.84-7.96,13.19-14.52,19.35-18.61c1.5-1.04,2.94-1.98,4.38-2.77c1.38-0.8,2.64-1.53,3.45-1.9c1.74-0.87,2.74-1.37,2.74-1.37
				c3.83-1.91,8.49-0.35,10.4,3.48c1.91,3.84,0.35,8.49-3.48,10.4C969.17,939.55,969.03,939.61,968.93,939.65z"/>
		</g>
	</g>
	<g>
		<g>
			<path d="M1684.7,810.47c0,0,1.02,0.61,2.82,1.68c0.9,0.53,1.98,1.18,3.23,1.92c0.62,0.37,1.29,0.76,1.99,1.18
				c0.75,0.56,1.53,1.15,2.35,1.76c1.62,1.26,3.38,2.63,5.23,4.06c1.92,1.41,3.33,3.22,5.1,4.92c1.68,1.74,3.52,3.44,4.96,5.54
				c1.52,2.01,3.07,4.06,4.61,6.1c1.28,2.21,2.56,4.42,3.82,6.59c1.35,2.11,2.2,4.45,3.14,6.63c0.85,2.22,1.96,4.24,2.46,6.37
				c0.57,2.09,1.12,4.06,1.62,5.89c1.15,3.59,1.12,6.83,1.55,8.96c0.28,2.17,0.45,3.4,0.45,3.4c0.24,1.85-1.06,3.55-2.91,3.8
				c-1.71,0.23-3.29-0.87-3.71-2.5l-0.12-0.47c0,0-0.29-1.1-0.78-3.03c-0.63-1.88-0.89-4.72-2.32-7.81
				c-0.63-1.56-1.32-3.25-2.04-5.03c-0.64-1.81-1.88-3.48-2.84-5.33c-1.05-1.8-1.98-3.75-3.41-5.44c-1.3-1.74-2.62-3.51-3.94-5.29
				c-1.53-1.58-3.06-3.16-4.57-4.73c-1.4-1.64-3.16-2.86-4.73-4.17c-1.61-1.19-3.06-2.69-4.6-3.5c-1.49-0.91-2.89-1.77-4.19-2.56
				c-0.66-0.4-1.21-0.79-1.86-1.14c-0.74-0.33-1.45-0.65-2.11-0.94c-1.33-0.6-2.48-1.11-3.43-1.53c-1.9-0.85-2.99-1.33-2.99-1.33
				c-3.99-1.78-5.79-6.44-4.02-10.44c1.78-3.99,6.45-5.78,10.44-4.01C1684.14,810.16,1684.45,810.33,1684.7,810.47z"/>
		</g>
	</g>
	<path class="st12" d="M1474.48,933.62c10.66,12.47,16.3,29.14,15.37,45.54"/>
	<g>
		<g>
			<path d="M1163.32,973.41c0,0-1.72,2.71-4.31,6.75c-0.64,1.01-1.34,2.11-2.08,3.27c-0.83,1.18-1.09,2.28-1.71,3.51
				c-1.12,2.45-2.32,5.06-3.52,7.67c-0.84,2.89-1.67,5.79-2.46,8.5c-0.34,1.38-0.92,2.69-1.02,3.99c-0.17,1.29-0.34,2.52-0.49,3.65
				c-0.62,4.58-1.04,7.63-1.04,7.63l-0.07,0.49c-0.24,1.74-1.84,2.97-3.59,2.73c-1.55-0.22-2.68-1.5-2.75-3c0,0-0.17-3.32-0.42-8.31
				c-0.06-1.26-0.12-2.63-0.19-4.07c-0.13-1.46,0.2-2.95,0.3-4.52c0.32-3.17,0.65-6.54,0.99-9.92c0.87-3.42,1.73-6.84,2.54-10.05
				c0.46-1.56,0.77-3.34,1.33-4.55c0.52-1.28,1-2.48,1.45-3.59c1.8-4.46,3-7.42,3-7.42c1.64-4.06,6.27-6.02,10.32-4.38
				c4.06,1.65,6.01,6.27,4.37,10.32C1163.8,972.56,1163.56,973.02,1163.32,973.41z"/>
		</g>
	</g>
	<g>
		<g>
			<path d="M1651.81,974.34c0,0,0.63-0.76,1.74-2.09c0.55-0.67,1.23-1.48,2-2.41c0.83-0.95,1.64-1.97,2.21-2.98
				c0.69-1.04,1.43-2.17,2.22-3.36c0.86-1.14,1.45-2.75,2.24-4.21c0.74-1.51,1.63-3.04,2.15-4.74c0.62-1.68,1.24-3.39,1.87-5.1
				c0.43-1.78,0.86-3.56,1.28-5.3c0.52-1.75,0.64-3.52,0.87-5.24c0.16-1.71,0.55-3.39,0.5-4.98c0.01-1.59,0.02-3.1,0.03-4.5
				c0.14-2.82-0.46-5.08-0.53-6.74c-0.18-1.64-0.29-2.57-0.29-2.57l-0.05-0.42c-0.19-1.74,1.06-3.31,2.8-3.5
				c1.58-0.17,3.01,0.84,3.41,2.32c0,0,0.27,1,0.74,2.76c0.37,1.77,1.38,4.25,1.71,7.36c0.22,1.56,0.46,3.25,0.71,5.04
				c0.32,1.79,0.18,3.7,0.29,5.67c0.04,1.97,0.18,4.05-0.09,6.12c-0.19,2.09-0.38,4.2-0.57,6.32c-0.42,2.1-0.85,4.19-1.27,6.25
				c-0.34,2.1-1.08,4.05-1.69,5.98c-0.7,1.93-1.1,3.8-1.99,5.57c-0.84,1.79-1.63,3.47-2.36,5.03c-0.74,1.66-1.45,2.88-2.08,3.85
				c-0.63,1.04-1.17,1.93-1.62,2.67c-0.9,1.48-1.41,2.33-1.41,2.33c-2.26,3.74-7.13,4.93-10.87,2.67
				c-3.74-2.26-4.93-7.13-2.67-10.87C1651.32,974.97,1651.57,974.63,1651.81,974.34z"/>
		</g>
	</g>
	<g>
		<g>
			<path d="M1010.01,1078.64c0,0-0.52-0.58-1.42-1.62c-0.45-0.51-1.01-1.15-1.64-1.86c-0.61-0.66-1.35-1.53-2.23-2.82
				c-0.82-1.19-1.72-2.48-2.66-3.84c-0.98-1.35-1.51-2.82-2.31-4.3c-0.73-1.5-1.56-2.99-2.05-4.67c-0.55-1.63-1.12-3.28-1.68-4.93
				c-0.35-1.7-0.7-3.4-1.04-5.08c-0.42-1.64-0.46-3.33-0.58-4.93c-0.06-1.61-0.33-3.13-0.19-4.61c0.09-1.46,0.18-2.83,0.26-4.11
				c0.06-2.52,0.79-4.58,0.99-6.02c0.3-1.43,0.47-2.24,0.47-2.24c0.31-1.49,1.77-2.45,3.26-2.14c1.29,0.27,2.18,1.41,2.19,2.69
				l0,0.43c0,0,0,0.74,0.01,2.03c0.1,1.29-0.21,3.1,0.22,5.27c0.15,1.07,0.32,2.23,0.5,3.46c0.11,1.22,0.64,2.46,0.96,3.75
				c0.38,1.28,0.66,2.62,1.3,3.89c0.55,1.27,1.1,2.56,1.66,3.85c0.72,1.2,1.44,2.4,2.14,3.58c0.62,1.21,1.54,2.21,2.32,3.23
				c0.82,0.95,1.49,2.1,2.31,2.76c0.76,0.72,1.47,1.4,2.12,2.03c0.53,0.6,1.32,1.24,2.15,1.83c0.77,0.58,1.43,1.08,1.98,1.5
				c1.1,0.82,1.72,1.3,1.72,1.3c3.5,2.64,4.2,7.61,1.56,11.11c-2.64,3.5-7.61,4.2-11.11,1.56
				C1010.77,1079.43,1010.35,1079.03,1010.01,1078.64z"/>
		</g>
	</g>
	<g>
		<g>
			<path d="M852.46,1068.74c0,0-0.71-0.69-1.95-1.91c-0.62-0.61-1.38-1.35-2.24-2.2c-0.43-0.42-0.89-0.87-1.38-1.34
				c-0.51-0.58-1.07-1.35-1.63-2.08c-1.09-1.5-2.28-3.13-3.54-4.85c-1.32-1.71-1.91-3.59-2.92-5.5c-0.9-1.93-1.96-3.84-2.46-6.01
				c-0.61-2.11-1.23-4.25-1.84-6.38c-0.27-2.21-0.55-4.4-0.82-6.58c-0.39-2.14-0.17-4.3-0.1-6.36c0.17-2.06-0.01-4.05,0.47-5.9
				c0.4-1.84,0.78-3.59,1.13-5.2c0.27-1.62,0.78-3.03,1.35-4.25c0.52-1.23,0.97-2.3,1.34-3.19c0.75-1.74,1.17-2.74,1.17-2.74
				c0.85-1.98,3.15-2.91,5.14-2.05c1.82,0.78,2.75,2.77,2.24,4.63l-0.22,0.79c0,0-0.24,0.87-0.66,2.39
				c-0.21,0.75-0.47,1.66-0.76,2.71c-0.35,1.03-0.64,2.21-0.66,3.57c-0.12,1.32-0.25,2.76-0.39,4.28c-0.24,1.49,0.19,3.14,0.24,4.77
				c0.16,1.65,0.14,3.35,0.71,5.04c0.42,1.67,0.84,3.37,1.27,5.07c0.7,1.59,1.39,3.19,2.08,4.76c0.54,1.62,1.6,2.96,2.45,4.31
				c0.92,1.26,1.59,2.83,2.56,3.68c0.91,0.93,1.72,1.83,2.45,2.65c0.39,0.42,0.66,0.81,1.07,1.21c0.54,0.41,1.05,0.8,1.53,1.17
				c0.96,0.73,1.8,1.37,2.49,1.89c1.38,1.06,2.17,1.65,2.17,1.65c3.48,2.64,4.17,7.6,1.53,11.08c-2.64,3.48-7.6,4.17-11.08,1.53
				C852.96,1069.2,852.68,1068.95,852.46,1068.74z"/>
		</g>
	</g>
	<g>
		<g>
			<path d="M1761.54,935.06c0,0,0.77-0.92,2.11-2.52c0.74-0.82,1.33-1.74,2.58-2.94c1.19-1.17,2.54-2.49,4.01-3.93
				c0.81-0.77,2.42-2.58,3.73-3.97c1.54-1.54,2.64-3.04,3.75-4.59c1.16-1.55,2.44-3.1,3.48-5.05c1.04-1.89,2.41-3.67,3.22-5.73
				c0.89-2.02,1.95-3.99,2.7-6.04c0.72-2.08,1.42-4.12,2.1-6.1c0.47-2.04,0.93-4.02,1.37-5.89c0.53-1.87,0.56-3.71,0.82-5.38
				c0.16-1.67,0.5-3.22,0.46-4.59c0.01-1.38,0.03-2.57,0.04-3.56c0.02-1.99,0.04-3.13,0.04-3.13l0.01-0.42
				c0.02-2.01,1.68-3.62,3.69-3.6c1.87,0.02,3.4,1.46,3.58,3.28c0,0,0.13,1.24,0.35,3.42c0.11,1.1,0.24,2.43,0.39,3.96
				c0.2,1.53,0.04,3.26,0.07,5.16c-0.07,1.89,0.09,3.97-0.25,6.12c-0.26,2.17-0.53,4.45-0.81,6.81c-0.52,2.34-1.06,4.75-1.6,7.2
				c-0.6,2.44-1.54,4.82-2.32,7.27c-0.71,2.49-2,4.72-2.99,7.07c-0.95,2.33-2.32,4.57-3.63,6.74c-1.3,2.23-2.6,4.33-3.81,5.84
				c-1.33,1.76-2.13,2.98-3.69,4.89c-0.98,1.16-1.89,2.23-2.68,3.18c-0.81,0.87-1.51,2.17-2.08,2.97c-1.15,1.74-1.81,2.74-1.81,2.74
				l-0.14,0.21c-2.42,3.64-7.33,4.63-10.96,2.22c-3.64-2.42-4.64-7.33-2.22-10.97C1761.18,935.52,1761.36,935.29,1761.54,935.06z"/>
		</g>
	</g>
	<path class="st13" d="M975.89,961.49c-2.86,1.79-4.92,5.3-3.97,8.53c0.86,2.89,3.77,4.68,6.64,5.63c6.55,2.2,13.65,1.5,20.52,0.8
		c6.79-0.7,12.98-8.98,8.15-15.5C1002.16,954.08,981.61,957.91,975.89,961.49z"/>
	<path class="st13" d="M885.99,968.47c5.01,0.3,10.56-1.91,12.6-6.51c3.52-7.92-3.4-14.58-10.55-16.08
		c-3.62-0.76-7.35-1.52-11.01-0.96c-3.66,0.57-7.3,2.79-8.5,6.28c-1.22,3.54,0.36,7.57,2.96,10.27
		C875.09,965.19,880.77,968.15,885.99,968.47z"/>
	<path class="st13" d="M1675.58,849.48c-6.51-0.01-12.98,2.73-17.5,7.42c-2.01,2.08-3.69,4.61-4.11,7.48
		c-0.98,6.59,5.47,12.67,12.13,12.89c6.67,0.22,12.81-4.13,16.58-9.61c2.41-3.5,4.1-7.86,2.98-11.93c-1.12-4.07-6.02-7.16-9.77-5.17
		"/>
	<path class="st13" d="M1778.3,814.41c-4.97,0.82-9.84,3.13-12.92,7.11c-3.09,3.99-4.06,9.75-1.68,14.19
		c9.25,2.36,19.59-0.19,26.69-6.55c3.85-3.44,6.83-9.23,4.18-13.66c-1.65-2.73-5.02-4.04-8.21-3.97c-3.18,0.05-6.22,1.27-9.12,2.62"
		/>
	<path class="st11" d="M863.95,1218.74c-2.11-2.75-4.36-5.6-7.53-6.99c-3.16-1.38-7.52-0.7-9.11,2.36
		c-1.18,2.24-0.57,4.98,0.11,7.42c7.78,27.32,23.57,52.33,44.9,71.14c15.8,13.93,39.32,16.46,24.12-6.37
		C901.35,1263.6,880.76,1240.83,863.95,1218.74z"/>
	<path class="st14" d="M1374.6,1107.29c5.56-1.36,12.1-2.69,16.45,1.04c4.47,3.83,3.89,11.29,0.36,15.98
		c-3.51,4.7-9.09,7.32-14.44,9.73c-11.92,5.41-23.98,10.85-36.85,13.2c-36.84,6.71-108.91-11.71-139.13-32.94
		c15.81-15.4,48.25-3.9,67.18-1.4C1303.41,1117.54,1340.11,1116.11,1374.6,1107.29z"/>
</g>
</svg>
